<svg xmlns="http://www.w3.org/2000/svg" viewBox="0 0 600 500" width="600" height="500">
  <defs>
    <style type="text/css">
      @import url('https://fonts.googleapis.com/css2?family=Baloo+2:wght@800&amp;display=swap');
      .logo-text {
        font-family: 'Baloo 2', 'Nunito', sans-serif;
        font-weight: 800;
        font-size: 68px;
        fill: #0A1E5C;
        letter-spacing: -2px;
      }
    </style>
  </defs>
  
  <!-- Étoiles décoratives gauche -->
  <g fill="#6B8FE8">
    <path d="M 150 320 L 158 335 L 173 343 L 158 351 L 150 366 L 142 351 L 127 343 L 142 335 Z">
      <animate attributeName="opacity" values="0.5;1;0.5" dur="2.5s" repeatCount="indefinite"/>
    </path>
    <circle cx="170" cy="200" r="5">
      <animate attributeName="opacity" values="0.4;1;0.4" dur="3s" repeatCount="indefinite"/>
    </circle>
    <circle cx="190" cy="380" r="4">
      <animate attributeName="opacity" values="1;0.4;1" dur="2.8s" repeatCount="indefinite"/>
    </circle>
  </g>
  
  <!-- Étoile décorative droite -->
  <g fill="#6B8FE8">
    <path d="M 470 320 L 478 335 L 493 343 L 478 351 L 470 366 L 462 351 L 447 343 L 462 335 Z">
      <animate attributeName="opacity" values="1;0.5;1" dur="2.5s" repeatCount="indefinite"/>
    </path>
  </g>
  
  <!-- Bandes/traits en ÉVENTAIL à GAUCHE (3 traits) -->
  <g stroke="#6B8FE8" stroke-width="5" stroke-linecap="round" fill="none">
    <!-- Trait du haut : incliné vers le bas (pointe vers le texte) -->
    <line x1="50" y1="438" x2="85" y2="450"/>
    <!-- Trait du milieu : le plus long, horizontal -->
    <line x1="40" y1="460" x2="90" y2="460"/>
    <!-- Trait du bas : incliné vers le haut -->
    <line x1="50" y1="482" x2="85" y2="470"/>
  </g>
  
  <!-- Bandes/traits en ÉVENTAIL à DROITE (miroir) -->
  <g stroke="#6B8FE8" stroke-width="5" stroke-linecap="round" fill="none">
    <line x1="515" y1="450" x2="550" y2="438"/>
    <line x1="510" y1="460" x2="560" y2="460"/>
    <line x1="515" y1="470" x2="550" y2="482"/>
  </g>
  
  <!-- Œil nazar -->
  <circle cx="300" cy="220" r="160" fill="#1E3A8A"/>
  <circle cx="300" cy="220" r="115" fill="#FFFFFF"/>
  <circle cx="300" cy="220" r="75" fill="#A5D8F3"/>
  
  <!-- Pupille animée -->
  <g>
    <circle cx="300" cy="220" r="32" fill="#0A1E5C">
      <animateTransform 
        attributeName="transform" 
        type="translate"
        values="0,0; 25,0; 25,0; -25,5; -25,5; 0,-20; 0,-20; 15,15; 15,15; 0,0; 0,0"
        keyTimes="0; 0.1; 0.22; 0.32; 0.44; 0.54; 0.66; 0.76; 0.88; 0.95; 1"
        dur="7s"
        repeatCount="indefinite"
        calcMode="spline"
        keySplines="0.4 0 0.2 1; 0 0 1 1; 0.4 0 0.2 1; 0 0 1 1; 0.4 0 0.2 1; 0 0 1 1; 0.4 0 0.2 1; 0 0 1 1; 0.4 0 0.2 1; 0 0 1 1"/>
    </circle>
  </g>
  
  <!-- Reflets blancs -->
  <g>
    <ellipse cx="345" cy="160" rx="14" ry="20" fill="#FFFFFF" transform="rotate(-25 345 160)"/>
    <circle cx="328" cy="195" r="6" fill="#FFFFFF"/>
  </g>
  
  <!-- Clignement -->
  <rect x="140" y="60" width="320" height="320" fill="#FAFAFA" opacity="0">
    <animate attributeName="opacity" 
             values="0;0;0;0;0;0;0;0;0;0.95;0;0;0;0;0;0;0;0;0;0;0" 
             keyTimes="0;0.05;0.1;0.15;0.2;0.25;0.3;0.35;0.4;0.42;0.44;0.5;0.55;0.6;0.65;0.7;0.75;0.8;0.85;0.9;1"
             dur="7s" 
             repeatCount="indefinite"/>
  </rect>
  
  <!-- Texte -->
  <text x="300" y="475" 
        class="logo-text"
        text-anchor="middle">tpm-trust</text>
</svg>
